<svg
  id="Layer_2"
  xmlns="http://www.w3.org/2000/svg"
  viewBox="0 0 1000 220.39"
  width="72"
  fill="currentColor"
>
  <g>
    <path
      d="m238.29,0h220.39v110.19c0,60.82-49.38,110.19-110.19,110.19h0c-60.82,0-110.19-49.38-110.19-110.19V0h0Z"
    ></path>
    <path
      d="m487.36,214.99h220.39v-104.8c0-60.86-49.34-110.19-110.19-110.19h-110.19s0,214.99,0,214.99Z"
    ></path>
    <rect
      x="725.65"
      y="0"
      width="220.39"
      height="220.39"
      rx="110.19"
      ry="110.19"></rect>
    <path
      d="m101.31,0c0,55.96-45.36,101.32-101.31,101.32v119.07C121.72,220.39,220.39,121.72,220.39,0h0s-119.07,0-119.07,0Z"
    ></path>
    <circle className="cls-1" cx="931.86" cy="68.14" r="68.14" fill="#7888ff"
    ></circle>
  </g>
</svg>
